<svg id="fd566b18-22b6-42ee-96aa-351dfb09e851" data-name="Calque 1" xmlns="http://www.w3.org/2000/svg" width="32" height="32" viewBox="0 0 32 32">
  <title>map-94-3378BACC</title>
  <path d="M30.12,16.45a.46.46,0,0,1-.74-.24l-.2-.35a1,1,0,0,0-.32-1.08s.1.65,0,.78l-1.11-.67a4.68,4.68,0,0,1-1.41-1.32s-.13-.09-.07-.43.21-.64-.78-2c0,0-1.19-1.27-1.58-1.78a1.58,1.58,0,0,1,0,.55L20,8.53a3.8,3.8,0,0,0-3.12.22A47.33,47.33,0,0,1,12,10.13a14.22,14.22,0,0,1-2.6.5c-1.2.07-2.59-.15-4.92,2.48a3.79,3.79,0,0,0-1.1,2.75c0,.71-.37,1.29-.18,2a10.08,10.08,0,0,0,.51,1.39s.17-1.12.23-1.65a2.39,2.39,0,0,0-.13-1.16,2.71,2.71,0,0,1,.79-2.25,7.26,7.26,0,0,0-.09,3.07c.35,1.46.7,2,.08,2.65a1.42,1.42,0,0,0-.34,1.41L4.53,24l.32.09s0,.88,1.21.9c0,0,.39-.25.15-.48a4.19,4.19,0,0,1-.7-2.7A3,3,0,0,1,5.9,21c.27-.38.92-.51,1.09-.91.42,0,.33.16.38.53a2.56,2.56,0,0,0,.36,1.08,12.3,12.3,0,0,1,1.55,2.42s.12.16.35,0a.79.79,0,0,0,.82.46c.63,0,.88-.07.76-.3a20,20,0,0,1-1.46-1.51c-.28-.5-1.3-1.1-.33-2.73l.37-.5a11.09,11.09,0,0,0,1.77,1,3.85,3.85,0,0,0,2.88-.24c.29-.1,1.6-.74,1.84-.44a7.17,7.17,0,0,1,.89,1.59,6.19,6.19,0,0,1,.38,1.88,3.79,3.79,0,0,0,.37,1.4l.19,0s.45,1,1.29.39c0,0,.47.1.24-.25a3.16,3.16,0,0,1-.82-2.24A3.81,3.81,0,0,1,19,21a.23.23,0,0,1,.23.22c0,.21.35,1.86.38,2.39,0,0,.16.32.4.32,0,0,.23.58,1.29.63a.29.29,0,0,0,0-.46,2.45,2.45,0,0,1-.52-1c-.13-.36-.48-1.58-.17-2.08a4.38,4.38,0,0,0,.24-1.8A9.14,9.14,0,0,0,22,18.41a4.52,4.52,0,0,0,2.14.19,3.35,3.35,0,0,0,1.95-.28,1.85,1.85,0,0,0,1-.23,2.33,2.33,0,0,0,1,0,2.14,2.14,0,0,1,.92.07,2.11,2.11,0,0,0,.65-.16S30.81,16.6,30.12,16.45Z" style="fill-rule: evenodd"/>
</svg>
